<?xml version="1.0" encoding="UTF-8"?>
<svg version="1.1" xmlns="http://www.w3.org/2000/svg" width="1024" height="1024">
<path d="M0 0 C337.92 0 675.84 0 1024 0 C1024 337.92 1024 675.84 1024 1024 C686.08 1024 348.16 1024 0 1024 C0 686.08 0 348.16 0 0 Z " fill="#FEFEFE" transform="translate(0,0)"/>
<path d="M0 0 C1.17695525 -0.00226556 2.3539105 -0.00453111 3.56653106 -0.00686532 C6.82068311 -0.01208899 10.07480028 -0.01285217 13.32895517 -0.01167095 C16.84377339 -0.01146641 20.35858344 -0.01699083 23.87339783 -0.02172852 C30.75561178 -0.03002481 37.63781716 -0.03278292 44.5200357 -0.03334089 C50.1175848 -0.03381664 55.71513108 -0.03587433 61.31267929 -0.03904152 C77.19801577 -0.04784616 93.08334551 -0.05246132 108.96868445 -0.05171105 C110.25248719 -0.05165111 110.25248719 -0.05165111 111.56222534 -0.05158997 C112.41914446 -0.05154909 113.27606359 -0.0515082 114.15894996 -0.05146609 C128.03659982 -0.05105991 141.91422252 -0.06062271 155.79186453 -0.07472833 C170.05629738 -0.08911214 184.32071699 -0.09599738 198.58515728 -0.09513456 C206.58744446 -0.09480323 214.58970317 -0.09752207 222.5919838 -0.10831261 C229.40742967 -0.11744412 236.22283418 -0.11957125 243.03828354 -0.11280318 C246.51127864 -0.109551 249.9841945 -0.10943378 253.45718193 -0.11815643 C257.23365025 -0.12590664 261.00991287 -0.12121134 264.78637695 -0.11352539 C265.86821923 -0.11866895 266.95006151 -0.12381252 268.06468689 -0.12911195 C290.58639555 -0.02838652 311.35409879 7.00196913 328.2741394 22.13371277 C329.11847534 22.88394714 329.96281128 23.63418152 330.83273315 24.40715027 C337.38448062 30.56998122 341.92962481 37.29026025 346.2741394 45.13371277 C346.75753784 45.97804871 347.24093628 46.82238464 347.73898315 47.69230652 C354.412787 60.04594343 356.41980725 73.20023979 356.51242065 87.03215027 C356.5204924 88.18107758 356.52856415 89.33000488 356.53688049 90.51374817 C356.55068133 92.93946338 356.56142128 95.36519768 356.56930542 97.79093933 C356.58084499 100.26593229 356.60132762 102.74089999 356.63082886 105.21574402 C356.67353921 108.80055069 356.68967771 112.38462064 356.69992065 115.96965027 C356.71742874 117.06884796 356.73493683 118.16804565 356.75297546 119.30055237 C356.73399164 126.05637635 355.88397536 130.38003144 352.2741394 136.13371277 C347.7927578 140.50018715 343.64852326 142.22119029 337.4616394 142.57121277 C332.08150119 142.43510808 328.11279486 140.94852565 324.2741394 137.13371277 C319.27828282 130.99411102 318.57815948 125.88266404 318.70773315 118.12590027 C318.69928123 116.56127548 318.69928123 116.56127548 318.69065857 114.96504211 C318.67428131 111.64580294 318.6896628 108.32790407 318.7116394 105.00871277 C318.95686981 76.65684753 318.95686981 76.65684753 304.94992065 52.62980652 C293.77733373 41.98340108 282.35073141 38.82415875 267.26271057 38.86628723 C266.06715555 38.86175612 264.87160054 38.85722501 263.63981658 38.85255659 C260.33839445 38.84211941 257.03719093 38.84058104 253.73576796 38.84294534 C250.16850529 38.84335478 246.60127469 38.83230228 243.0340271 38.8228302 C236.05168457 38.80624725 229.06937581 38.80072189 222.08701523 38.79960544 C216.40937768 38.79865375 210.73175124 38.79453742 205.0541172 38.78820419 C188.94320322 38.77059972 172.83231584 38.76136416 156.72139218 38.76286514 C155.4197274 38.76298501 155.4197274 38.76298501 154.09176636 38.7631073 C152.78850531 38.76322994 152.78850531 38.76322994 151.45891575 38.76335506 C137.3794817 38.7641679 123.30015465 38.74502882 109.22075155 38.71683057 C94.75062875 38.68807931 80.2805581 38.67429148 65.81040603 38.67601812 C57.69190913 38.67668121 49.57352444 38.67122428 41.45505333 38.64966202 C34.54291914 38.63142076 27.63094803 38.62712703 20.71880015 38.64068086 C17.195329 38.64719555 13.67217043 38.64738257 10.14872932 38.62997437 C6.32118257 38.61125889 2.49408836 38.62383723 -1.33348083 38.63923645 C-2.43603047 38.62894932 -3.53858011 38.6186622 -4.67454034 38.60806334 C-17.53245756 38.72203939 -27.50117075 43.55293467 -36.91726685 52.12980652 C-43.89201464 59.34278099 -49.83907463 69.7613066 -49.86008167 79.98275661 C-49.86453952 80.9880307 -49.86899736 81.99330478 -49.87359029 83.02904171 C-49.87340593 84.1366018 -49.87322157 85.2441619 -49.87303162 86.38528442 C-49.8767083 87.55952754 -49.88038499 88.73377066 -49.8841731 89.9435969 C-49.8933017 93.20871262 -49.89791005 96.4737988 -49.90056241 99.7389251 C-49.90446539 103.25857012 -49.91404396 106.77820058 -49.92277527 110.2978363 C-49.9425433 118.80246266 -49.95260784 127.30709022 -49.96150306 135.81173381 C-49.96588675 139.81838406 -49.97125348 143.825033 -49.97649193 147.83168221 C-49.99350708 161.15482655 -50.00799951 174.47797007 -50.01524067 187.80112362 C-50.01715053 191.25907327 -50.01907086 194.71702291 -50.02102661 198.17497253 C-50.02175222 199.46413769 -50.02175222 199.46413769 -50.02249249 200.77934659 C-50.03078619 214.69028854 -50.05611065 228.60114431 -50.08860729 242.51204865 C-50.12171212 256.80008009 -50.13969266 271.08806781 -50.14288491 285.37613779 C-50.1450472 293.39582158 -50.15375423 301.41537982 -50.17934608 309.43502617 C-50.20110019 316.26782772 -50.20908057 323.10047324 -50.1993793 329.93330549 C-50.19484771 333.41636828 -50.19665337 336.8991095 -50.21614075 340.38212776 C-50.23387417 344.16811703 -50.22674493 347.9532979 -50.21360779 351.73928833 C-50.22457703 352.82677193 -50.23554628 353.91425553 -50.24684793 355.03469318 C-50.1372727 368.17141967 -45.62697671 378.8349487 -36.6242981 388.35636902 C-26.80185817 397.64083079 -16.05761337 401.44938101 -2.75491333 401.38908386 C-1.29017075 401.39451454 -1.29017075 401.39451454 0.2041626 401.40005493 C2.31464774 401.40692414 4.42515055 401.40945903 6.53564644 401.40810776 C9.87746762 401.40713957 13.2189698 401.42011829 16.56074524 401.43708801 C26.05852834 401.48328105 35.55627704 401.50797683 45.0541687 401.51457214 C50.87194999 401.51958538 56.68939538 401.54382073 62.50706291 401.57989883 C64.72099733 401.58969601 66.93497794 401.59202925 69.14892769 401.58672714 C72.24384668 401.57966013 75.33776249 401.59693033 78.43258667 401.61955261 C79.34444229 401.61138016 80.25629791 401.6032077 81.19578552 401.5947876 C86.70258322 401.66636943 89.93718902 402.40938112 94.2741394 406.13371277 C96.42196773 409.35545526 96.52063088 410.17708587 96.50119019 413.88053894 C96.50096359 415.32169319 96.50096359 415.32169319 96.50073242 416.79196167 C96.49040985 417.82641922 96.48008728 418.86087677 96.4694519 419.92668152 C96.46662201 420.98784683 96.46379211 422.04901215 96.46087646 423.14233398 C96.44967125 426.53540774 96.42456587 429.92821864 96.3991394 433.32121277 C96.38911005 435.62003708 96.37998413 437.91886553 96.37179565 440.21769714 C96.34973081 445.85645888 96.31624985 451.49506704 96.2741394 457.13371277 C100.28457862 455.48331754 103.96742247 453.885683 107.55148315 451.41886902 C108.30381226 450.90380798 109.05614136 450.38874695 109.83126831 449.858078 C110.61679077 449.30966248 111.40231323 448.76124695 112.2116394 448.19621277 C113.04356812 447.62137146 113.87549683 447.04653015 114.7326355 446.45426941 C120.71090706 442.2956948 126.55982485 437.98438946 132.36056519 433.58293152 C139.12323432 428.45923887 146.0371276 423.56734701 153.00314331 418.72502136 C155.43394142 417.02173797 157.84418736 415.29147432 160.25460815 413.55949402 C161.92738205 412.3753305 163.60055065 411.19172434 165.2741394 410.00871277 C166.0389563 409.45191833 166.80377319 408.8951239 167.59176636 408.32145691 C168.33257446 407.80317322 169.07338257 407.28488953 169.8366394 406.75090027 C170.47730347 406.29312195 171.11796753 405.83534363 171.77804565 405.36369324 C178.50350758 402.0496403 185.84575187 401.84367971 193.209198 401.87834167 C194.1584465 401.87472122 195.10769501 401.87110077 196.08570862 401.86737061 C198.13175883 401.86051677 200.17782716 401.85796358 202.2238884 401.85931778 C205.47063124 401.86028965 208.71704901 401.84726283 211.96374512 401.83033752 C221.18958043 401.78426431 230.41538035 401.75946767 239.6413269 401.75285339 C245.29934332 401.7478207 250.95701753 401.72348551 256.61491776 401.6875267 C258.76052413 401.67777348 260.90617784 401.67537211 263.05179977 401.68069839 C278.64017374 401.94828945 278.64017374 401.94828945 293.2741394 397.13371277 C294.34148315 396.59230652 295.4088269 396.05090027 296.5085144 395.49308777 C309.88253494 386.93703737 315.47932361 376.57965977 319.18429565 361.33293152 C320.99323004 356.02283381 324.16336822 352.49315135 329.15304565 349.86418152 C334.06701145 348.17189496 339.48126736 348.17189496 344.39523315 349.86418152 C349.59080177 352.60163165 353.03779575 356.77975445 355.2741394 362.13371277 C357.31534321 377.02375739 350.94652287 391.73761338 342.46554565 403.68058777 C326.31896428 424.60291857 305.43880891 436.57744601 279.2741394 440.13371277 C273.09414004 440.61950522 266.90953195 440.52021093 260.71628761 440.40561104 C257.76543468 440.35480684 254.81590132 440.33683184 251.86463928 440.3274231 C243.49039315 440.29778028 235.11733555 440.23279772 226.74411011 440.09635925 C221.57996904 440.01451133 216.41783924 439.98746084 211.253088 439.99363518 C209.30956623 439.98557969 207.36600481 439.95757706 205.42310524 439.90774727 C191.7069836 439.56364804 183.41160354 441.96004532 172.82633877 450.84400654 C170.78340631 452.54145777 168.62789567 454.05265597 166.44210815 455.55949402 C165.11375633 456.51962187 163.78690596 457.48183078 162.4616394 458.44621277 C161.72502075 458.97980408 160.9884021 459.51339539 160.22946167 460.06315613 C154.7002322 464.0760902 149.2046968 468.1339884 143.7116394 472.19621277 C137.07590913 477.10346629 130.38675256 481.9223746 123.62643433 486.65641785 C119.16079785 489.78700476 114.74097245 492.97350407 110.33908081 496.19303894 C85.47071933 514.35517807 85.47071933 514.35517807 75.2741394 513.13371277 C68.82517998 511.4234313 65.13041159 508.48126224 61.3678894 503.03605652 C59.30275079 499.44419043 59.15181259 496.52637598 59.16061401 492.46891785 C59.16068954 491.30794083 59.16076508 490.14696381 59.1608429 488.95080566 C59.16600418 487.69761032 59.17116547 486.44441498 59.17648315 485.15324402 C59.17860558 483.22855537 59.17860558 483.22855537 59.18077087 481.26498413 C59.18458535 477.85701036 59.1944065 474.44907934 59.20547485 471.04112244 C59.21571197 467.56222614 59.22027342 464.08332292 59.22531128 460.60441589 C59.23602973 453.78083065 59.25309332 446.95727376 59.2741394 440.13371277 C58.43270386 440.1403746 57.59126831 440.14703644 56.72433472 440.15390015 C48.72376759 440.21446659 40.72327947 440.25991559 32.72253418 440.28914928 C28.61105423 440.30468474 24.49976656 440.32569582 20.38839722 440.36003113 C16.40721803 440.3930642 12.42622162 440.41065639 8.44491577 440.4183445 C6.93975962 440.42381041 5.43461138 440.4344788 3.92953491 440.45090294 C-9.52852764 440.59167859 -23.00241819 439.45309641 -35.4758606 433.94621277 C-36.17993042 433.64360535 -36.88400024 433.34099792 -37.60940552 433.02922058 C-59.32474472 423.36476942 -74.96936824 405.96160376 -83.94802856 384.19816589 C-85.79271329 379.3021665 -86.86683129 374.28078918 -87.7258606 369.13371277 C-87.89771252 368.32033636 -88.06956444 367.50695995 -88.24662399 366.66893578 C-88.92214577 361.68576022 -88.87034526 356.76141302 -88.86630249 351.7381134 C-88.86927361 350.58454704 -88.87224473 349.43098067 -88.87530589 348.24245775 C-88.88246894 345.04884806 -88.88516387 341.8552712 -88.88590336 338.66165471 C-88.88775899 335.21356308 -88.89530908 331.76548299 -88.90203857 328.31739807 C-88.91560411 320.77973098 -88.92164439 313.24206922 -88.92604923 305.70439196 C-88.92881576 300.99218541 -88.93305396 296.2799809 -88.93755341 291.56777573 C-88.94974581 278.50615633 -88.96004384 265.44453856 -88.9634285 252.38291359 C-88.96364806 251.54734771 -88.96386763 250.71178184 -88.96409385 249.85089578 C-88.96431213 249.01338651 -88.9645304 248.17587723 -88.9647553 247.31298888 C-88.96519875 245.61602314 -88.96564532 243.91905741 -88.96609497 242.22209167 C-88.9663164 241.38034706 -88.96653783 240.53860244 -88.96676597 239.6713504 C-88.97070871 226.05107834 -88.98814685 212.43085994 -89.01145449 198.81060858 C-89.03522302 184.80722558 -89.04763292 170.80386943 -89.04879642 156.80046594 C-89.04971031 148.94616229 -89.05538991 141.0919285 -89.07361603 133.2376442 C-89.08909174 126.54521546 -89.09409393 119.85287817 -89.08587793 113.16043492 C-89.08199705 109.75180231 -89.08443858 106.34350161 -89.09693527 102.93486786 C-89.20393262 71.91570845 -83.99551253 47.32979384 -62.1008606 24.07121277 C-45.22215254 7.55604611 -23.28314444 -0.03292134 0 0 Z " fill="#4DAFEC" transform="translate(307.7258605957031,262.8662872314453)"/>
<path d="M0 0 C9.3041604 6.63151109 15.88903606 15.17727578 18.375 26.375 C19.66351956 41.10677748 17.96628252 53.62512258 8.375 65.375 C0.54913049 73.90605775 -10.1916579 78.51742345 -21.64453125 79.55859375 C-27.32956099 79.74921605 -33.62830693 79.05918796 -38.640625 76.2421875 C-40.56346411 75.21859934 -40.56346411 75.21859934 -42.57421875 75.515625 C-45.29017365 76.65373943 -47.18256686 78.22683816 -49.4375 80.125 C-50.40171875 80.93066406 -51.3659375 81.73632812 -52.359375 82.56640625 C-54.70572257 84.56919183 -57.02093429 86.60462253 -59.328125 88.65234375 C-71.5377363 99.46497435 -83.14474032 108.48347408 -100.21453857 108.50630188 C-101.84599319 108.51231415 -101.84599319 108.51231415 -103.51040649 108.51844788 C-105.27787735 108.5176548 -105.27787735 108.5176548 -107.08105469 108.5168457 C-108.96022079 108.52205734 -108.96022079 108.52205734 -110.87734985 108.52737427 C-113.59464773 108.53471843 -116.31189698 108.54039777 -119.02919769 108.54366493 C-123.33389753 108.5496023 -127.63851588 108.56616876 -131.94317627 108.58500671 C-133.42037578 108.5913434 -134.89757533 108.59766903 -136.37477493 108.60398388 C-137.11436778 108.60714969 -137.85396062 108.6103155 -138.61596537 108.61357725 C-148.63003027 108.65555512 -158.64405605 108.68861657 -168.65820312 108.70092773 C-175.42352144 108.70933002 -182.18863635 108.73189828 -188.95385289 108.7702834 C-192.52785756 108.78996715 -196.10155873 108.80247433 -199.67562103 108.79744911 C-203.66781756 108.79190387 -207.65926251 108.81730205 -211.65136719 108.8449707 C-212.82158417 108.83836929 -213.99180115 108.83176788 -215.19747925 108.82496643 C-223.74148 108.92190164 -230.73955846 110.41300704 -237.62451172 115.66162109 C-238.42646973 116.48227051 -239.22842773 117.30291992 -240.0546875 118.1484375 C-241.40046875 119.5096875 -241.40046875 119.5096875 -242.7734375 120.8984375 C-243.67320312 121.83945312 -244.57296875 122.78046875 -245.5 123.75 C-246.88445312 125.14992188 -246.88445312 125.14992188 -248.296875 126.578125 C-252.59366438 130.97455008 -256.25165805 135.22556859 -259.625 140.375 C-258.29215721 140.32857864 -258.29215721 140.32857864 -256.93238831 140.28121948 C-233.49539457 139.51054622 -210.07769455 139.3274972 -186.63076699 139.41891551 C-180.72825743 139.44148536 -174.82579736 139.45373029 -168.92324829 139.45941162 C-167.65174205 139.4606986 -167.65174205 139.4606986 -166.35454881 139.46201158 C-162.89927679 139.46531047 -159.44400516 139.46826528 -155.9887321 139.47023058 C-146.26320402 139.47598451 -136.53848512 139.50085918 -126.81323242 139.57714844 C-118.95795189 139.63862725 -111.10363857 139.66121794 -103.24813563 139.63833606 C-99.12732177 139.6277697 -95.008652 139.63618549 -90.88816643 139.69266129 C-87.04278449 139.74501113 -83.20079844 139.74559034 -79.35528374 139.70729256 C-77.95484611 139.7023301 -76.55418983 139.71588376 -75.15416336 139.75017738 C-69.10552936 139.88940833 -64.48031447 139.8952044 -59.6756916 135.95840073 C-57.01133426 133.07529797 -57.01133426 133.07529797 -54.78176212 130.07037163 C-51.43062312 125.88235066 -47.4068599 123.65591783 -42.625 121.375 C-41.36429688 120.75818359 -41.36429688 120.75818359 -40.078125 120.12890625 C-30.32866571 115.96086818 -18.94924274 115.7563358 -8.953125 119.34765625 C3.15671716 124.69142888 11.34719112 132.65598302 16.5 144.9296875 C20.06752029 154.8996326 19.74592501 167.6965232 15.375 177.375 C9.22214374 189.69935755 1.09520599 196.76125314 -12.046875 201.19140625 C-23.21131351 204.02210609 -34.11988969 202.40941129 -44.27734375 196.94921875 C-52.62793947 191.57204647 -59.26143463 184.31014091 -63.625 175.375 C-83.06071849 175.35112222 -102.49643383 175.33376256 -121.93216419 175.32318783 C-130.96641867 175.31813671 -140.0006636 175.31125823 -149.03491211 175.29956055 C-152.52783184 175.29523948 -156.02075175 175.29109929 -159.51367188 175.28710938 C-160.37965492 175.28610709 -161.24563797 175.28510481 -162.13786292 175.28407216 C-171.77232468 175.27375578 -181.40661503 175.27485262 -191.04104614 175.30331421 C-191.90991569 175.30585673 -192.77878524 175.30839926 -193.67398417 175.31101882 C-197.17974536 175.32153711 -200.68550441 175.3323336 -204.19125962 175.34469867 C-214.8610343 175.38161378 -225.52835482 175.36707842 -236.19783503 175.27594823 C-243.22110024 175.21752009 -250.24384519 175.19631003 -257.26734823 175.20224315 C-261.39132545 175.20393592 -265.51313487 175.18667151 -269.63663673 175.12119865 C-273.45310806 175.06080293 -277.26629371 175.05176729 -281.08309388 175.08156657 C-282.46872693 175.0833074 -283.85454018 175.06644219 -285.23966002 175.02869344 C-291.24760517 174.87347006 -295.79344912 174.89111232 -300.58350563 178.77192497 C-303.09916678 181.54028696 -305.34870714 184.40998361 -307.625 187.375 C-309.67546332 189.32189754 -311.78310446 191.13081195 -313.94921875 192.9453125 C-315.77631586 194.4526281 -315.77631586 194.4526281 -317.8125 196.6875 C-321.96666538 200.55517122 -326.58159052 200.88485538 -332.05859375 200.74609375 C-337.16403564 200.00786395 -340.8732724 197.6512562 -344.0078125 193.578125 C-346.81211716 188.67549448 -347.62318582 183.92407016 -346.625 178.375 C-343.81916649 172.38385474 -339.41390513 167.74692857 -334.74267578 163.16796875 C-333.73432175 162.16136703 -333.73432175 162.16136703 -332.70559692 161.13442993 C-330.50074502 158.936715 -328.28557194 156.74971941 -326.0703125 154.5625 C-324.52408025 153.02441571 -322.97859037 151.48558478 -321.43380737 149.94604492 C-317.37575888 145.90506277 -313.30922248 141.87273774 -309.24035645 137.84265137 C-302.73396395 131.39557895 -296.240227 124.93576681 -289.74718857 118.47525024 C-287.48836551 116.23028881 -285.22571298 113.98924614 -282.96243286 111.7487793 C-281.56357178 110.3599518 -280.16479426 108.97104013 -278.76611328 107.58203125 C-278.14458374 106.96881012 -277.5230542 106.35558899 -276.88269043 105.7237854 C-273.12392801 101.98384143 -269.57497795 98.11405231 -266.11614799 94.0947876 C-256.50612852 83.01125172 -242.30206701 75.36549895 -227.56838226 74.11572456 C-224.22596775 74.03670772 -220.89670205 74.04891979 -217.55371094 74.09790039 C-215.62228299 74.10709008 -213.69085503 74.11627711 -211.75942659 74.12536323 C-209.70634393 74.13790227 -207.65345638 74.15791282 -205.60045624 74.18007088 C-201.30465807 74.22580258 -197.0089454 74.24688429 -192.71295166 74.26426697 C-182.0509801 74.31110833 -171.38926021 74.38870809 -160.72753906 74.47479248 C-152.42189267 74.54157076 -144.11640084 74.5993009 -135.81052995 74.62934297 C-131.54456632 74.64578886 -127.27930401 74.68095027 -123.01360273 74.73052037 C-119.73537712 74.76353272 -116.45707285 74.77039934 -113.17871094 74.78149414 C-112.00556335 74.80058838 -110.83241577 74.81968262 -109.62371826 74.83935547 C-101.35745981 74.83051451 -96.31062064 73.33253155 -90.265625 67.45703125 C-89.71237549 66.92899902 -89.15912598 66.4009668 -88.58911133 65.85693359 C-88.02345459 65.30602051 -87.45779785 64.75510742 -86.875 64.1875 C-81.70164723 59.25804875 -76.42922804 54.62723517 -70.83203125 50.1796875 C-67.04911439 47.4387911 -67.04911439 47.4387911 -65.34790039 43.37304688 C-65.38906982 42.62087891 -65.43023926 41.86871094 -65.47265625 41.09375 C-65.50351318 40.25690674 -65.53437012 39.42006348 -65.56616211 38.55786133 C-65.60620361 37.67251709 -65.64624512 36.78717285 -65.6875 35.875 C-65.94589173 23.43116473 -63.41007664 14.54128313 -54.625 5.375 C-39.06013673 -8.99475494 -18.0801687 -10.93508485 0 0 Z " fill="#4DAFEC" transform="translate(797.625,348.625)"/>
<path d="M0 0 C1.34116241 -0.00870566 2.68231488 -0.01907576 4.02345276 -0.03097534 C7.65194036 -0.0576654 11.28001015 -0.05892236 14.90857673 -0.05384874 C17.94738702 -0.05170181 20.98611408 -0.06149581 24.02490646 -0.07105958 C31.20221508 -0.09322168 38.37931437 -0.09414265 45.55664062 -0.08203125 C52.93508186 -0.0699707 60.31275849 -0.09453019 67.6910693 -0.13717139 C74.04638387 -0.17253571 80.4014566 -0.18438497 86.7568658 -0.1778959 C90.54343608 -0.17428862 94.32946173 -0.17935369 98.115942 -0.20732498 C101.68274151 -0.23268842 105.24836171 -0.22840491 108.81514549 -0.2025032 C110.72840905 -0.19560174 112.64171035 -0.21798062 114.55484009 -0.24163818 C126.95165942 -0.09268281 135.41711305 4.77325353 144.23950195 13.20166016 C146.76659722 15.58593685 149.38998468 17.75485378 152.1027832 19.92431641 C156.80770466 23.71364945 161.24580518 27.71667088 165.58081055 31.91992188 C168.43468882 34.62075614 170.86230172 36.64489286 174.7277832 37.54931641 C177.12870846 36.97788512 177.12870846 36.97788512 179.3527832 35.73681641 C187.86553514 31.48044044 197.67975907 31.27719595 206.9777832 33.23291016 C218.72890656 37.25566687 227.74862358 44.54009754 233.5402832 55.54931641 C238.92184341 67.19756186 239.14577384 78.30003336 234.98950195 90.50634766 C233.12026581 95.01450542 230.79674347 98.76699008 227.7277832 102.54931641 C227.22633789 103.17451172 226.72489258 103.79970703 226.20825195 104.44384766 C219.80529636 111.59459368 209.19828406 116.9972536 199.61450195 117.81494141 C186.24240266 117.74963201 175.52451657 115.25722986 165.4152832 105.86181641 C158.5880528 98.52990367 153.62443358 89.18583894 153.7824707 79.03759766 C153.9530306 71.53787142 153.9530306 71.53787142 150.74731445 65.03759766 C148.38930386 63.153279 145.97810795 61.44119802 143.4621582 59.77587891 C140.12947671 57.41898254 137.14928564 54.63397726 134.1027832 51.92431641 C122.79422007 40.8534803 122.79422007 40.8534803 108.46572876 36.29776001 C106.86759087 36.28968575 106.86759087 36.28968575 105.23716736 36.28144836 C103.49156273 36.28763435 103.49156273 36.28763435 101.71069336 36.29394531 C100.48104355 36.29032486 99.25139374 36.28670441 97.98448181 36.28297424 C95.3123557 36.27607662 92.64048161 36.27269178 89.96837234 36.27492142 C85.74051341 36.2777573 81.5128212 36.26339212 77.28500366 36.24594116 C65.26367698 36.19894114 53.24236176 36.1749759 41.22094727 36.16845703 C34.57948097 36.16470355 27.9382035 36.14665158 21.29681814 36.11336267 C17.09681561 36.09317117 12.89730086 36.090767 8.69726968 36.10164285 C5.46599188 36.1048681 2.2348763 36.08214632 -0.99633789 36.06347656 C-2.15602585 36.07164902 -3.31571381 36.07982147 -4.51054382 36.08824158 C-11.92631762 36.01192472 -15.55775198 35.15790574 -20.91674805 29.95166016 C-24.86106108 25.00477926 -25.69339623 21.37658452 -25.61206055 15.18603516 C-25.05756083 10.88388218 -23.31880061 7.61598758 -20.2722168 4.54931641 C-13.81198189 -0.27566855 -7.87113036 -0.03129067 0 0 Z " fill="#4CAEEC" transform="translate(578.272216796875,556.45068359375)"/>
<path d="M0 0 C1.19860657 -0.00571014 2.39721313 -0.01142029 3.63214111 -0.01730347 C4.9439183 -0.01842133 6.2556955 -0.01953918 7.60722351 -0.02069092 C9.0053063 -0.02532123 10.40338783 -0.03034618 11.8014679 -0.03573608 C15.59703406 -0.04884132 19.39258256 -0.05530134 23.18816781 -0.05974674 C25.56085398 -0.06268041 27.93353535 -0.06678577 30.3062191 -0.07125092 C37.73380298 -0.08492071 45.16137585 -0.09458998 52.58897144 -0.09845281 C61.15569756 -0.10293287 69.72226408 -0.12048047 78.28894168 -0.1494534 C84.9158318 -0.17108601 91.54267705 -0.18115792 98.1696021 -0.18249393 C102.12525936 -0.18354079 106.08076648 -0.18942341 110.03638649 -0.20731354 C113.75875936 -0.22382169 117.48086966 -0.22593655 121.20326614 -0.21717453 C123.21412315 -0.21604007 125.22497155 -0.22973608 127.23577881 -0.243927 C134.53195493 -0.21026396 140.38908987 -0.14480052 146.09819031 4.85919189 C146.79815125 5.74091064 146.79815125 5.74091064 147.51225281 6.64044189 C148.23541687 7.52216064 148.23541687 7.52216064 148.97319031 8.42169189 C151.81768707 12.62162 151.58038306 17.27437003 151.13725281 22.14044189 C149.34536122 27.51611664 145.8058383 31.05817147 141.13725281 34.14044189 C137.8139064 35.21914375 134.70933181 35.27103026 131.22981262 35.28088379 C130.02134674 35.28659393 128.81288086 35.29230408 127.5677948 35.29818726 C126.23173533 35.29943251 124.89567575 35.30055763 123.55961609 35.30157471 C122.1500587 35.30620492 120.74050256 35.31122986 119.33094788 35.31661987 C115.5044581 35.32972479 111.67798585 35.3361849 107.85147715 35.34063053 C105.4600377 35.34356386 103.06860303 35.34766913 100.67716599 35.3521347 C93.19245302 35.36580356 85.70775098 35.37547365 78.22302639 35.3793366 C69.58724024 35.38381836 60.95161228 35.40137426 52.31587422 35.43033719 C45.63719551 35.45195805 38.95856131 35.46204106 32.27984798 35.46337771 C28.29236508 35.4644253 24.30503101 35.47032331 20.31758499 35.48819733 C16.56648865 35.50468546 12.81565292 35.50683004 9.06453323 35.49805832 C7.03559219 35.49692189 5.00665977 35.51063281 2.97776794 35.52481079 C1.76366241 35.51924164 0.54955688 35.51367249 -0.70133972 35.50793457 C-1.75251921 35.50940113 -2.80369869 35.51086769 -3.8867321 35.51237869 C-9.05372576 34.86661749 -12.91092936 32.65264925 -16.17524719 28.64044189 C-16.66638 28.05262939 -17.15751282 27.46481689 -17.66352844 26.85919189 C-20.5684293 22.69581607 -20.30535785 18.00080803 -19.86274719 13.14044189 C-18.07085561 7.76476714 -14.53133268 4.22271231 -9.86274719 1.14044189 C-6.55278537 0.06780216 -3.4652321 0.00989477 0 0 Z " fill="#4CAEEC" transform="translate(320.8627471923828,368.85955810546875)"/>
<path d="M0 0 C1.17825348 -0.0071553 2.35650696 -0.01431061 3.57046509 -0.02168274 C7.44971967 -0.03853603 11.32781322 -0.01918463 15.20703125 0.00219727 C17.91170932 0.00373072 20.61637031 -0.00103732 23.32104492 -0.00511169 C28.98337057 -0.0096231 34.64536485 0.00617745 40.30761719 0.03417969 C46.83796594 0.06622765 53.36771733 0.06621296 59.89810848 0.04896492 C66.20075345 0.03305699 72.50318109 0.03986062 78.80581665 0.05690193 C81.47878283 0.06374388 84.15129016 0.06161074 86.8243103 0.05535698 C90.56293457 0.04989329 94.3005529 0.07031969 98.0390625 0.09765625 C99.13852203 0.09113037 100.23798157 0.08460449 101.37075806 0.07788086 C107.7602805 0.15712662 112.70673422 0.90614964 118.01953125 4.63110352 C121.95010944 8.66511797 123.76291417 12.36431931 124.39453125 17.94360352 C123.81307494 23.66125727 121.77385672 27.82804679 117.76953125 31.94360352 C110.40718425 36.46140736 104.0605646 37.07169047 95.60571289 37.03515625 C93.92852425 37.04545113 93.92852425 37.04545113 92.217453 37.05595398 C88.538067 37.07418735 84.85910879 37.07038929 81.1796875 37.06469727 C78.61193199 37.06926061 76.04417769 37.07456664 73.47642517 37.08058167 C68.10084475 37.08950594 62.72542728 37.08733253 57.34985352 37.07714844 C51.15468824 37.06567026 44.95995604 37.07974521 38.76484782 37.10654491 C32.78152154 37.13144978 26.79841661 37.13386703 20.81503105 37.12742805 C18.27978228 37.127275 15.7445251 37.13330624 13.20930672 37.14571953 C9.66012781 37.16065028 6.11189412 37.1499358 2.56274414 37.1328125 C1.52298431 37.14248047 0.48322449 37.15214844 -0.58804321 37.16210938 C-8.02719697 37.08721818 -14.33554945 35.70155184 -20.13671875 30.81469727 C-20.801875 29.95038086 -20.801875 29.95038086 -21.48046875 29.06860352 C-21.94453125 28.48981445 -22.40859375 27.91102539 -22.88671875 27.31469727 C-25.61665676 23.11254268 -25.65238902 18.45174083 -24.98046875 13.63110352 C-22.84895857 8.04335955 -19.46121144 4.79082 -14.43197632 1.71873665 C-9.78199121 -0.34427059 -5.00994287 -0.05327823 0 0 Z " fill="#4DAFEC" transform="translate(325.98046875,452.368896484375)"/>
<path d="M0 0 C1.73253777 -0.01913956 1.73253777 -0.01913956 3.50007629 -0.03866577 C4.73972641 -0.04089142 5.97937653 -0.04311707 7.2565918 -0.04541016 C9.18186958 -0.05539536 9.18186958 -0.05539536 11.14604187 -0.06558228 C13.86025352 -0.07753368 16.57433812 -0.08126541 19.28857422 -0.08007812 C22.74851793 -0.07987526 26.20763731 -0.10715222 29.66738605 -0.14162254 C32.98879879 -0.16935487 36.310065 -0.16804385 39.6315918 -0.17041016 C40.86516922 -0.18478119 42.09874664 -0.19915222 43.3697052 -0.21395874 C50.91584537 -0.17408404 56.88947376 0.32096602 62.65644836 5.70254517 C66.26114123 9.74032137 67.91595907 13.28225601 68.51831055 18.60302734 C67.76925217 25.96876803 64.47123763 30.54810142 58.8269043 35.16162109 C55.41353983 37.4503968 52.31407809 37.43027927 48.33007812 37.4675293 C47.13486038 37.48036453 45.93964264 37.49319977 44.70820618 37.50642395 C43.41448593 37.51381088 42.12076569 37.52119781 40.7878418 37.52880859 C39.79746697 37.53492188 39.79746697 37.53492188 38.78708458 37.54115868 C35.28953746 37.56200456 31.79202935 37.57631028 28.29443359 37.58569336 C24.6977288 37.59672992 21.10164745 37.63110098 17.50516224 37.67086506 C14.72630233 37.69713003 11.94758844 37.70539405 9.16861534 37.70897484 C7.20336947 37.71616041 5.23822381 37.74256008 3.27314758 37.7693634 C-4.62016281 37.75029419 -10.81308042 37.28262543 -16.6965332 31.47412109 C-17.23987305 30.60980469 -17.23987305 30.60980469 -17.79418945 29.72802734 C-18.17446289 29.14923828 -18.55473633 28.57044922 -18.9465332 27.97412109 C-21.34309945 23.54098782 -21.30310057 19.19262673 -20.85668945 14.29052734 C-19.04956237 8.86914609 -15.50952087 5.44305802 -10.85668945 2.29052734 C-7.10993319 0.52338143 -4.12907756 0.03107764 0 0 Z " fill="#4CAEEC" transform="translate(321.856689453125,534.70947265625)"/>
<path d="M0 0 C5.42911824 2.33808742 9.56415602 5.51935105 12 11 C12.75149116 16.17432977 12.80643671 21.1791163 10.4375 25.9375 C7.0099578 30.24389917 3.96848138 32.48669001 -1.39453125 33.4140625 C-6.94102137 33.73782076 -10.86415886 32.74652083 -15.37109375 29.46875 C-18.68623728 26.47955583 -19.78986612 23.78214807 -20.30859375 19.3828125 C-20.50809313 14.92128098 -20.32794878 11.73788475 -18.5 7.625 C-13.36696464 2.23531287 -7.70093255 -1.8506117 0 0 Z " fill="#FCFDFE" transform="translate(778,614)"/>
<path d="M0 0 C6.41666667 5.25 6.41666667 5.25 7.75 9.25 C8.43878831 16.34113208 8.33892652 21.62856502 3.75 27.25 C-0.97414355 30.69319357 -5.38530887 31.99641524 -11.25 31.25 C-17.12416372 29.42698367 -19.75333923 27.08361931 -23.25 22.25 C-25.22436212 18.30127576 -24.68829693 13.55383233 -24.25 9.25 C-21.88454786 4.43148638 -18.49263006 0.59177796 -13.4375 -1.5 C-4.6506734 -2.50420875 -4.6506734 -2.50420875 0 0 Z " fill="#FCFDFE" transform="translate(782.25,492.75)"/>
<path d="M0 0 C4.62335194 2.24272488 8.15580269 5.12037746 10 10 C10.74875966 15.58811159 11.09366191 21.21898304 7.875 26.0625 C4.66777882 29.72534313 1.51207528 31.67215983 -3.39453125 32.3125 C-10.52162637 32.6544296 -14.01299931 30.66408169 -19.3125 25.9375 C-22.66903015 22.08370612 -22.39280368 17.6727974 -22.34765625 12.796875 C-21.82393933 8.58360179 -20.11700958 5.83224574 -17 3 C-11.5825753 -0.87089636 -6.46278784 -1.04508212 0 0 Z " fill="#FCFDFE" transform="translate(780,368)"/>
<path d="M0 0 C0.495 1.485 0.495 1.485 1 3 C-1.30040708 5.39242337 -3.6848089 7.6010377 -6.22680664 9.72900391 C-9.93129303 12.8907933 -13.38160874 16.25326271 -16.80859375 19.7109375 C-17.72597069 20.63043686 -17.72597069 20.63043686 -18.66188049 21.56851196 C-20.58947559 23.50164564 -22.51353928 25.43824987 -24.4375 27.375 C-25.75432404 28.69684699 -27.07137926 30.01846372 -28.38867188 31.33984375 C-31.59512373 34.55724299 -34.79841629 37.77775681 -38 41 C-38 38 -38 38 -36.55737305 36.1966095 C-35.88230713 35.52820541 -35.20724121 34.85980133 -34.51171875 34.17114258 C-33.37053589 33.03029961 -33.37053589 33.03029961 -32.20629883 31.8664093 C-31.37509521 31.05068954 -30.5438916 30.23496979 -29.6875 29.39453125 C-28.84405029 28.55532639 -28.00060059 27.71612152 -27.1315918 26.85148621 C-24.42799842 24.1647262 -21.71417532 21.48856565 -19 18.8125 C-17.1685891 16.99612983 -15.33785091 15.1790811 -13.5078125 13.36132812 C-9.01299342 8.8996402 -4.50972499 4.44661823 0 0 Z " fill="#2DA1EA" transform="translate(521,454)"/>
<path d="M0 0 C1.44096586 0.42594588 2.87768712 0.86626633 4.3125 1.3125 C5.11300781 1.55613281 5.91351562 1.79976562 6.73828125 2.05078125 C9.09964573 3.04182023 10.33879993 4.08074943 12 6 C10.58318366 5.68817931 9.16655349 5.37551263 7.75 5.0625 C6.96109375 4.88847656 6.1721875 4.71445312 5.359375 4.53515625 C3.23121297 4.052444 1.11467158 3.53836822 -1 3 C-0.67 2.01 -0.34 1.02 0 0 Z " fill="#3FA8EA" transform="translate(701,557)"/>
<path d="M0 0 C0 3.44360632 -0.79591532 4.74795392 -2.5 7.6875 C-2.9640625 8.49574219 -3.428125 9.30398438 -3.90625 10.13671875 C-4.2671875 10.75160156 -4.628125 11.36648438 -5 12 C-6 10 -6 10 -5.125 7.0625 C-4.75375 6.051875 -4.3825 5.04125 -4 4 C-3.67 3.01 -3.34 2.02 -3 1 C-2.01 0.67 -1.02 0.34 0 0 Z " fill="#3AA7EA" transform="translate(265,319)"/>
<path d="M0 0 C0.66 0.33 1.32 0.66 2 1 C0.35 2.65 -1.3 4.3 -3 6 C-3.66 5.34 -4.32 4.68 -5 4 C-3.35 2.68 -1.7 1.36 0 0 Z M-5 6 C-4.01 6.495 -4.01 6.495 -3 7 C-3.99 7.495 -3.99 7.495 -5 8 C-5 7.34 -5 6.68 -5 6 Z " fill="#3CA7EA" transform="translate(414,715)"/>
<path d="M0 0 C4.41889613 1.35021826 6.34345343 3.26115668 9 7 C8.443125 6.690625 7.88625 6.38125 7.3125 6.0625 C4.87459567 4.94238179 2.63775814 4.43962636 0 4 C0 2.68 0 1.36 0 0 Z " fill="#37A5EA" transform="translate(714,564)"/>
<path d="M0 0 C1.98 0 3.96 0 6 0 C4.3545622 1.68762851 2.68711423 3.3540349 1 5 C0.67 5 0.34 5 0 5 C0 3.35 0 1.7 0 0 Z " fill="#3FA9ED" transform="translate(730,438)"/>
</svg>
